<svg height="512" viewBox="0 0 64 64" width="512" xmlns="http://www.w3.org/2000/svg"><path d="m21 43c-5.28 0-13.3-.59-17-2.54v9.54c.29 1.04 6.4 3 17 3s16.71-1.96 17-3.02v-9.52c-3.7 1.95-11.72 2.54-17 2.54zm2 6h-4v-2h4z"/><path d="m21 19c-5.28 0-13.3-.59-17-2.54v9.54c.29 1.04 6.4 3 17 3s16.7-1.96 17-3.02v-9.52c-3.7 1.95-11.72 2.54-17 2.54zm2 6h-4v-2h4z"/><path d="m52.1 46a5.05 5.05 0 0 1 0-2z"/><circle cx="57" cy="45" r="3"/><circle cx="57" cy="19" r="3"/><circle cx="57" cy="57" r="3"/><path d="m52.1 8a5.05 5.05 0 0 1 0-2z"/><circle cx="57" cy="7" r="3"/><circle cx="57" cy="32" r="3"/><path d="m4 14.007c.323 1.037 6.418 2.993 17 2.993 10.554 0 16.642-1.945 16.992-3-.359-1.056-6.447-3-16.992-3-10.572 0-16.664 1.952-17 3.007z"/><path d="m21 31c-5.28 0-13.3-.59-17-2.54v9.54c.14.52 1.74 1.27 4.63 1.89a60.656 60.656 0 0 0 12.37 1.11c10.6 0 16.7-1.96 17-3.02v-9.52c-3.7 1.95-11.72 2.54-17 2.54zm2 6h-4v-2h4z"/><path d="m46 8v10h6.1a5.05 5.05 0 0 0 0 2h-6.1v11h6.1a5.05 5.05 0 0 0 0 2h-6.1v11h6.1v2h-6.1v10h6.1a5.05 5.05 0 0 0 0 2h-6.1v2a1 1 0 0 1 -1 1h-24a1 1 0 0 1 -1-1v-5.01c.55.01.91.01 1 .01s.45 0 1-.01v4.01h22v-54h-22v4.01c-.34-.01-.68-.01-1-.01s-.65 0-1 .01v-5.01a1 1 0 0 1 1-1h24a1 1 0 0 1 1 1v2h6.1v2z"/></svg>